Patient4_TMGait_0pt6_02_right_02_GRF.mot
version=1
nRows=46
nColumns=19
inDegrees=no
endheader
time	F1x	F1y	F1z	M1x	M1y	M1z	F2x	F2y	F2z	M2x	M2y	M2z	EC1x	EC1y	EC1z	EC2x	EC2y	EC2z
1.76	-8.18	803.7768	89.8134	-299.452	-91.4009	811.4594	13.7272	-16.7002	4.2943	-4.9782	-8.3677	-26.0987	-0.0592	0.0182	-0.0073	-0.0462	0.0165	0.9585
1.7719	-10.5329	785.1312	83.5142	-292.8233	-84.8666	783.4148	9.0756	-10.2859	2.9199	-3.0142	-5.5708	-16.4891	-0.0592	0.0182	-0.0073	-0.0462	0.0165	0.9585
1.7837	-11.586	764.967	77.5885	-285.5846	-78.2737	754.3435	5.213	-4.8575	1.7224	-1.3379	-3.2043	-8.4122	-0.0592	0.0182	-0.0073	-0.0462	0.0165	0.9585
1.7956	-11.227	744.985	72.3535	-278.383	-71.9487	726.3199	2.3069	-0.69045	0.79203	-0.042332	-1.4014	-2.2526	-0.0592	0.0182	-0.0073	-0.0462	0.0165	0.9585
1.8074	-9.6279	726.8277	67.9984	-271.8428	-66.1535	701.0439	0.34409	2.227	0.14082	0.871	-0.16106	2.026	-0.0592	0.0182	-0.0073	-0.0462	0.0165	0.9585
1.8193	-7.0317	711.8054	64.5152	-266.4714	-60.9587	679.6663	-0.84192	4.0706	-0.26625	1.4522	0.60232	4.7108	-0.0592	0.0182	-0.0073	-0.0462	0.0165	0.9585
1.8311	-3.7539	700.7895	61.8635	-262.6001	-56.4151	662.8277	-1.438	5.0665	-0.48746	1.768	1.0028	6.1463	-0.0592	0.0182	-0.0073	-0.0462	0.0165	0.9585
1.843	-0.08498	694.1005	59.9812	-260.3522	-52.5326	650.6053	-1.6415	5.4111	-0.57871	1.8761	1.1546	6.6487	-0.0592	0.0182	-0.0073	-0.0462	0.0165	0.9585
1.8549	3.7427	691.5884	58.7537	-259.6681	-49.2644	642.6606	-1.6173	5.2475	-0.59322	1.8166	1.1602	6.4636	-0.0592	0.0182	-0.0073	-0.0462	0.0165	0.9585
1.8667	7.5411	692.7288	58.1098	-260.342	-46.5888	638.3353	-1.4834	4.6501	-0.57178	1.6071	1.0937	5.7449	-0.0592	0.0182	-0.0073	-0.0462	0.0165	0.9585
1.8786	11.2015	696.8045	57.8797	-262.0909	-44.3767	636.853	-1.3344	3.6258	-0.53962	1.2439	1.0043	4.5445	-0.0592	0.0182	-0.0073	-0.0462	0.0165	0.9585
1.8904	14.6591	703.0061	58.0042	-264.5872	-42.5888	637.4161	-1.1969	2.1253	-0.5093	0.70611	0.91417	2.8213	-0.0592	0.0182	-0.0073	-0.0462	0.0165	0.9585
1.9023	17.8702	710.5282	58.3357	-267.5035	-41.1023	639.2509	-1.1019	0.1187	-0.47413	-0.01883	0.82708	0.56473	-0.0592	0.0182	-0.0073	-0.0462	0.0165	0.9585
1.9141	20.8167	718.6046	58.859	-270.5225	-39.9135	641.6753	-1.0053	-2.3912	-0.43186	-0.92706	0.73079	-2.2273	-0.0592	0.0182	-0.0073	-0.0462	0.0165	0.9585
1.926	23.5454	726.5583	59.4788	-273.3735	-38.9275	644.0778	-0.8903	-5.2391	-0.35931	-1.9598	0.59589	-5.3605	-0.0592	0.0182	-0.0073	-0.0462	0.0165	0.9585
1.9379	26.1111	733.8417	60.1983	-275.8421	-38.1306	645.975	-0.67773	-8.0827	-0.23818	-2.9875	0.38191	-8.4813	-0.0592	0.0182	-0.0073	-0.0462	0.0165	0.9585
1.9497	28.6616	740.0459	60.9465	-277.7809	-37.4123	646.999	-0.3374	-10.2197	-0.043916	-3.7517	0.049566	-10.8223	-0.0592	0.0182	-0.0073	-0.0462	0.0165	0.9585
1.9616	31.3108	744.8547	61.691	-279.0882	-36.7047	646.8798	0.21632	-10.5792	0.23622	-3.8484	-0.44463	-11.2539	-0.0592	0.0182	-0.0073	-0.0462	0.0165	0.9585
1.9734	34.1845	748.002	62.3571	-279.6912	-35.9016	645.3719	1.004	-7.5505	0.60359	-2.681	-1.1097	-8.0268	-0.0592	0.0182	-0.0073	-0.0462	0.0165	0.9585
1.9853	37.3586	749.2142	62.8616	-279.5192	-34.9005	642.2606	2.0826	0.92651	1.0405	0.517	-1.9339	1.0524	-0.0592	0.0182	-0.0073	-0.0462	0.0165	0.9585
1.9971	40.8672	748.1124	63.1109	-278.4701	-33.606	637.2508	3.3854	17.3233	1.4962	6.652	-2.8282	18.6532	-0.0592	0.0182	-0.0073	-0.0462	0.0165	0.9585
2.009	44.6334	744.1107	62.9579	-276.3698	-31.9121	629.9094	4.8112	44.098	1.8679	16.6278	-3.6281	47.3935	-0.0592	0.0182	-0.0073	-0.0462	0.0165	0.9585
2.0209	48.5215	736.3527	62.2699	-272.9396	-29.7689	619.6075	6.0438	83.1627	1.9762	31.1347	-4.0215	89.3365	-0.0592	0.0182	-0.0073	-0.0462	0.0165	0.9585
2.0327	52.2774	723.6979	60.8551	-267.7936	-27.115	605.5078	6.6261	134.8082	1.5615	50.2625	-3.5603	144.7806	-0.0592	0.0182	-0.0073	-0.0462	0.0165	0.9585
2.0446	55.5918	704.8151	58.5718	-260.4636	-23.9612	586.6208	5.6136	196.5443	0.28647	73.0576	-1.5566	211.0795	-0.0592	0.0182	-0.0073	-0.0462	0.0165	0.9585
2.0564	58.0986	678.3555	55.2651	-250.4635	-20.3223	561.9454	1.8377	261.9145	-2.189	97.1034	2.7343	281.29	-0.0592	0.0182	-0.0073	-0.0462	0.0165	0.9585
2.0683	59.4194	643.2399	50.931	-237.3959	-16.3555	530.6711	-4.6124	321.9312	-6.3274	119.0787	9.6667	345.6658	-0.0592	0.0182	-0.0073	-0.0462	0.0165	0.9585
2.0801	59.2291	599.1207	45.7049	-221.1132	-12.307	492.5602	-12.3311	370.9733	-11.8693	136.912	18.4123	397.9701	-0.0592	0.0182	-0.0073	-0.0462	0.0165	0.9585
2.092	57.3377	546.6388	39.9264	-201.8072	-8.5236	448.1529	-20.1679	409.0055	-18.0479	150.6116	27.7445	437.9845	-0.0592	0.0182	-0.0073	-0.0462	0.0165	0.9585
2.1039	53.7241	487.2894	34.0722	-179.9772	-5.3853	398.6422	-27.1732	439.5922	-24.1824	161.5198	36.6253	469.4085	-0.0592	0.0182	-0.0073	-0.0462	0.0165	0.9585
2.1157	48.4391	423.2893	28.504	-156.4017	-3.1386	345.7958	-32.78	467.2219	-29.628	171.3222	44.211	497.0221	-0.0592	0.0182	-0.0073	-0.0462	0.0165	0.9585
2.1276	41.6446	357.4047	23.4502	-132.0808	-1.8905	291.7924	-36.8494	495.6599	-34.2522	181.4093	50.3336	524.8825	-0.0592	0.0182	-0.0073	-0.0462	0.0165	0.9585
2.1394	33.6284	292.7041	18.986	-108.1478	-1.5749	239.0438	-39.543	527.2183	-38.1104	192.6063	55.1449	555.4931	-0.0592	0.0182	-0.0073	-0.0462	0.0165	0.9585
2.1513	24.9709	232.1379	15.1459	-85.7104	-1.9935	189.8333	-41.2767	562.4775	-41.701	205.0796	59.3084	589.5773	-0.0592	0.0182	-0.0073	-0.0462	0.0165	0.9585
2.1631	16.4303	178.1072	11.9269	-65.6719	-2.8398	146.019	-42.4221	600.7337	-45.4861	218.5193	63.4372	626.4855	-0.0592	0.0182	-0.0073	-0.0462	0.0165	0.9585
2.175	8.785	131.9675	9.3147	-48.5539	-3.8025	108.5949	-43.2771	640.4095	-49.8967	232.305	68.0621	664.6564	-0.0592	0.0182	-0.0073	-0.0462	0.0165	0.9585
2.1869	2.5583	94.0895	7.2013	-34.509	-4.5878	77.8218	-43.9633	679.375	-55.0047	245.6566	73.2927	701.9014	-0.0592	0.0182	-0.0073	-0.0462	0.0165	0.9585
2.1987	-2.0054	64.0423	5.4875	-23.3903	-5.0314	53.3444	-44.5581	715.4594	-60.5999	257.804	78.9324	736.0117	-0.0592	0.0182	-0.0073	-0.0462	0.0165	0.9585
2.2106	-4.9271	41.0056	4.0613	-14.8954	-5.0542	34.5237	-45.0131	746.7423	-66.1904	268.1054	84.4668	765.0075	-0.0592	0.0182	-0.0073	-0.0462	0.0165	0.9585
2.2224	-6.2855	24.0219	2.8587	-8.6624	-4.6521	20.6058	-45.2481	771.7954	-71.248	276.1072	89.3309	787.4584	-0.0592	0.0182	-0.0073	-0.0462	0.0165	0.9585
2.2343	-6.3371	12.1321	1.8509	-4.3275	-3.9037	10.8474	-45.0669	789.631	-75.3939	281.5179	93.077	802.3533	-0.0592	0.0182	-0.0073	-0.0462	0.0165	0.9585
2.2461	-5.5184	4.4964	1.0484	-1.566	-2.9873	4.5565	-44.3593	799.7394	-78.4707	284.2036	95.5065	809.2055	-0.0592	0.0182	-0.0073	-0.0462	0.0165	0.9585
2.258	-4.3633	0.23012	0.4787	-0.038268	-2.1212	1.0458	-43.0093	802.1349	-80.5063	284.2124	96.6127	808.0522	-0.0592	0.0182	-0.0073	-0.0462	0.0165	0.9585
2.2699	-3.1663	-1.6336	0.11131	0.61409	-1.3956	-0.49685	-41.043	797.6369	-81.5541	281.8691	96.4698	799.7959	-0.0592	0.0182	-0.0073	-0.0462	0.0165	0.9585
2.2817	-2.1398	-1.9259	-0.092202	0.70026	-0.85507	-0.73253	-38.5364	787.7891	-81.7187	277.7565	95.2272	786.0142	-0.0592	0.0182	-0.0073	-0.0462	0.0165	0.9585
2.2936	-1.3238	-1.3342	-0.17616	0.4697	-0.48947	-0.25093	-35.63	774.7371	-81.1201	272.6555	93.0747	768.8833	-0.0592	0.0182	-0.0073	-0.0462	0.0165	0.9585
